<svg width="25" height="25" viewBox="0 0 25 25" fill="none" xmlns="http://www.w3.org/2000/svg">
<g clip-path="url(#clip0_7_117)">
<path d="M25.0253 7.95701L21.4846 16.9985H8.1563L3.49014 4.65655H0L0.0252908 3H4.61558L9.28174 15.3419H20.3465L23.1411 7.95701" fill="white"/>
<path d="M18.1841 21.8796C19.092 21.8796 19.828 21.1436 19.828 20.2357C19.828 19.3278 19.092 18.5918 18.1841 18.5918C17.2762 18.5918 16.5402 19.3278 16.5402 20.2357C16.5402 21.1436 17.2762 21.8796 18.1841 21.8796Z" fill="white"/>
<path d="M11.482 21.8796C12.3899 21.8796 13.1259 21.1436 13.1259 20.2357C13.1259 19.3278 12.3899 18.5918 11.482 18.5918C10.5741 18.5918 9.83813 19.3278 9.83813 20.2357C9.83813 21.1436 10.5741 21.8796 11.482 21.8796Z" fill="white"/>
<path d="M14.6732 7.60203V7.64542H14.6677V7.60887L14.6567 7.6129V7.60795L14.6723 7.60203H14.6732Z" fill="white"/>
</g>
<defs>
<clipPath id="clip0_7_117">
<rect width="25" height="25" fill="white"/>
</clipPath>
</defs>
</svg>
