<svg width="50" height="50" viewBox="0 0 50 50" fill="none" xmlns="http://www.w3.org/2000/svg">
<path d="M11.2441 21.233C12.5712 16.1987 16.5618 12.2486 21.6058 10.9583C30.6322 8.64861 38.8095 14.6414 40.1222 22.9195C40.2884 23.9686 40.7562 24.9463 41.5074 25.6975L47.2751 31.4653C47.9411 32.1313 49.0787 31.8099 49.3001 30.8949C50.4049 26.3277 50.257 21.2719 48.4597 16.1071C46.0239 9.10644 40.405 3.64797 33.3563 1.35518C13.1766 -5.21023 -5.197 13.1523 1.34662 33.3304C3.62973 40.3705 9.06944 45.9883 16.0531 48.4383C21.1976 50.2429 26.2328 50.4061 30.7867 49.3254C31.7048 49.1076 32.0289 47.9667 31.3617 47.2995L25.1624 41.1C24.4741 40.4118 23.591 39.9591 22.6359 39.7708C14.6034 38.1895 8.90408 30.109 11.2441 21.233Z" fill="white"/>
<path d="M40.1957 32.8867C39.5072 34.5507 38.488 36.0574 37.1998 37.3156C35.9115 38.5737 34.3811 39.5571 32.7015 40.2061C31.6487 40.6118 31.3542 41.9594 32.1521 42.757L38.7689 49.3739C39.1694 49.7744 39.7126 49.9995 40.2791 49.9995H48.1977C48.6417 49.9994 49.0676 49.823 49.3816 49.509C49.6956 49.195 49.872 48.7691 49.8721 48.3251V40.4064C49.8721 40.1259 49.8168 39.8481 49.7095 39.589C49.6022 39.3299 49.4448 39.0944 49.2465 38.8961L42.7297 32.3792C41.9456 31.5958 40.6185 31.862 40.1957 32.8867Z" fill="white"/>
<path d="M32.9078 25.2548C32.9078 29.3406 29.5958 32.6527 25.51 32.6527C21.4241 32.6527 18.1121 29.3406 18.1121 25.2548C18.1121 21.1689 21.4241 17.8568 25.51 17.8568C29.5958 17.8568 32.9078 21.1689 32.9078 25.2548Z" fill="white"/>
</svg>
