<svg width="20" height="20" viewBox="0 0 20 20" fill="none" xmlns="http://www.w3.org/2000/svg">
<g clip-path="url(#clip0_7_123)">
<path d="M10 19.2308C7.6304 19.2308 5.476 18.33 3.8416 16.8624C4.7432 14.7176 6.8384 13.5556 9.9908 13.5556C13.1464 13.5556 15.2464 14.7732 16.154 16.9228C14.5204 18.3864 12.3656 19.2308 10 19.2308ZM10.1112 5.1108C12.082 5.1108 13.5556 6.6356 13.5556 8.662C13.5556 10.746 12.0056 12.4444 10.1112 12.4444C8.2168 12.4444 6.6668 10.746 6.6668 8.662C6.6668 6.6356 8.1404 5.1108 10.1112 5.1108ZM10 0C4.4772 0 0 4.4772 0 10C0 10.366 0.0224 10.7264 0.0608 11.082C0.0736 11.2 0.0972 11.3144 0.114 11.4312C0.148 11.6668 0.1832 11.9016 0.2332 12.1316C0.2624 12.2668 0.3008 12.3976 0.3356 12.5304C0.3896 12.7364 0.4448 12.9412 0.5112 13.142C0.5568 13.2788 0.6084 13.412 0.6592 13.546C0.7312 13.7364 0.8068 13.924 0.89 14.1084C0.9496 14.2408 1.0132 14.3712 1.0788 14.5004C1.1688 14.6788 1.264 14.8536 1.3644 15.0256C1.4372 15.1504 1.5104 15.2732 1.5884 15.3944C1.6972 15.5636 1.8124 15.7272 1.9308 15.8892C2.0136 16.0028 2.0948 16.1164 2.1824 16.2256C2.3124 16.3888 2.4508 16.544 2.5904 16.6984C2.6784 16.796 2.7632 16.896 2.8552 16.9896C3.0172 17.1556 3.1884 17.31 3.3612 17.464C3.4304 17.5256 3.4928 17.594 3.564 17.654L3.5656 17.6496C5.36479 19.1696 7.64468 20.0024 10 20C12.3523 20.0027 14.6294 19.1721 16.4276 17.6556C16.4281 17.6569 16.4285 17.6582 16.4288 17.6596C16.4976 17.602 16.5584 17.536 16.6248 17.4764C16.8016 17.3196 16.9768 17.1616 17.142 16.9928C17.2332 16.9 17.3168 16.8012 17.404 16.7048C17.5448 16.5492 17.6844 16.3928 17.8152 16.2284C17.9024 16.1196 17.9836 16.006 18.066 15.8932C18.1848 15.7312 18.3008 15.5668 18.4096 15.3972C18.6725 14.9853 18.9061 14.5554 19.1088 14.1108C19.192 13.9264 19.268 13.7388 19.3404 13.5484C19.3912 13.414 19.4428 13.2808 19.488 13.1436C19.5548 12.9428 19.61 12.738 19.664 12.5316C19.6988 12.3988 19.7372 12.268 19.7664 12.1332C19.8168 11.9028 19.852 11.6676 19.886 11.4316C19.9028 11.3148 19.9264 11.2008 19.9392 11.0828C19.9772 10.7268 20 10.3664 20 10C20 4.4772 15.5228 0 10 0Z" fill="white"/>
</g>
<defs>
<clipPath id="clip0_7_123">
<rect width="20" height="20" fill="white"/>
</clipPath>
</defs>
</svg>
