`<svg width="16" height="16" viewBox="0 0 16 16" fill="none" xmlns="http://www.w3.org/2000/svg">
<path d="M3.59812 6.79457C4.02279 5.18357 5.29979 3.91956 6.91385 3.50664C9.8023 2.76755 12.419 4.68526 12.8391 7.33424C12.8923 7.66995 13.042 7.98282 13.2824 8.22321L15.128 10.0689C15.3411 10.282 15.7052 10.1792 15.776 9.88635C16.1296 8.42485 16.0822 6.80701 15.5071 5.15427C14.7277 2.91406 12.9296 1.16735 10.674 0.433659C4.21652 -1.66727 -1.66304 4.20872 0.430917 10.6657C1.16151 12.9186 2.90222 14.7163 5.13699 15.5003C6.78324 16.0777 8.39451 16.13 9.85175 15.7841C10.1455 15.7144 10.2492 15.3493 10.0357 15.1358L8.05196 13.152C7.83172 12.9318 7.54912 12.7869 7.24348 12.7267C4.6731 12.2206 2.8493 9.63488 3.59812 6.79457V6.79457Z" fill="#232223"/>
<path d="M12.8626 10.5238C12.6423 11.0562 12.3161 11.5384 11.9039 11.941C11.4917 12.3436 11.0019 12.6583 10.4644 12.866C10.1276 12.9958 10.0333 13.427 10.2886 13.6822L12.406 15.7997C12.5342 15.9278 12.708 15.9998 12.8893 15.9999H15.4232C15.5653 15.9998 15.7016 15.9434 15.8021 15.8429C15.9025 15.7424 15.959 15.6061 15.959 15.464V12.93C15.959 12.8403 15.9414 12.7514 15.907 12.6685C15.8727 12.5856 15.8223 12.5102 15.7588 12.4468L13.6735 10.3614C13.4226 10.1107 12.9979 10.1959 12.8626 10.5238Z" fill="#232223"/>
<path d="M10.5305 8.08151C10.5305 9.38899 9.47066 10.4489 8.1632 10.4489C6.85574 10.4489 5.7959 9.38899 5.7959 8.08151C5.7959 6.77404 6.85574 5.71417 8.1632 5.71417C9.47066 5.71417 10.5305 6.77404 10.5305 8.08151V8.08151Z" fill="#232223"/>
</svg>
